<?xml version="1.0" encoding="utf-8"?>
<!-- Generator: Adobe Illustrator 18.1.1, SVG Export Plug-In . SVG Version: 6.00 Build 0)  -->
<svg version="1.1" id="Capa_1" xmlns="http://www.w3.org/2000/svg" xmlns:xlink="http://www.w3.org/1999/xlink" x="0px" y="0px"
	 viewBox="0 0 605 560" enable-background="new 0 0 605 560" xml:space="preserve">
<g>
	<polygon fill="#004675" points="275.9,484.9 338.6,484.9 368,542.1 246.5,542.1 	"/>
	<path fill="#42A5F5" d="M96.9,222.8h420.6c11.8,0,21.5,9.7,21.5,21.5v228.9c0,11.8-9.7,21.5-21.5,21.5H96.9
		c-11.8,0-21.5-9.7-21.5-21.5V244.3C75.4,232.5,85.1,222.8,96.9,222.8z"/>
	<rect x="89.7" y="235.4" fill="#FFFFFF" width="435.1" height="221"/>
	<path fill="#004675" d="M512.9,478.5c1.5,0,2.8-1.3,2.8-2.8s-1.3-2.8-2.8-2.8c-1.5,0-2.8,1.3-2.8,2.8
		C510.1,477.4,511.4,478.5,512.9,478.5z"/>
	<path fill="#004675" d="M502,478.5c1.5,0,2.8-1.3,2.8-2.8s-1.3-2.8-2.8-2.8s-2.8,1.3-2.8,2.8C499.2,477.4,500.5,478.5,502,478.5z"
		/>
	<path fill="#004675" d="M491.1,478.5c1.5,0,2.8-1.3,2.8-2.8s-1.3-2.8-2.8-2.8s-2.8,1.3-2.8,2.8
		C488.3,477.4,489.6,478.5,491.1,478.5z"/>
	<path fill="#0E72AA" d="M236.3,536.2h141.8c1.7,0,3.2,1.4,3.2,3.2l0,0c0,1.7-1.4,3.2-3.2,3.2H236.3c-1.7,0-3.2-1.4-3.2-3.2l0,0
		C233.2,537.8,234.6,536.2,236.3,536.2z"/>
	<rect x="89.7" y="330.1" fill="#90CAF9" width="435.1" height="107.9"/>
	<path fill="#DDE6F2" d="M417.7,377.6c-0.4-0.5-0.3-1.3,0.2-1.7c0.5-0.4,1.3-0.3,1.7,0.2l5.5,7.2l0.1,0.1l0,0l0,0l0,0v0.1v0.1l0,0
		v0.1v0.1v0.1l0,0v0.1l0,0l0,0l0,0l0,0l0,0v0.1l0,0v0.1v0.1v0.1l0,0v0.1v0.1l0,0l0,0l0,0c0,0.1-0.1,0.1-0.1,0.1l-5.5,7.2
		c-0.4,0.5-1.2,0.6-1.7,0.2s-0.6-1.2-0.2-1.7l5-6.4L417.7,377.6z"/>
	<path fill="#DDE6F2" d="M194.8,376.1c0.4-0.5,1.2-0.6,1.7-0.2s0.6,1.2,0.2,1.7l-5,6.4l5,6.4c0.4,0.5,0.3,1.3-0.2,1.7
		c-0.5,0.4-1.3,0.3-1.7-0.2l-5.5-7.2l-0.1-0.1l0,0l0,0l0,0v-0.1v-0.1l0,0v-0.1v-0.1v-0.1l0,0V384l0,0l0,0l0,0l0,0l0,0v-0.1l0,0v-0.1
		v-0.1v-0.1l0,0v-0.1v-0.1l0,0l0,0l0,0c0-0.1,0.1-0.1,0.1-0.1L194.8,376.1z"/>
	<g>
		<rect x="218.2" y="304" fill="#3271AC" width="178.1" height="7.9"/>
	</g>
	<g>
		<g>
			<defs>
				<rect id="SVGID_1_" x="75.4" y="200.5" width="463.7" height="105.6"/>
			</defs>
			<clipPath id="SVGID_2_">
				<use xlink:href="#SVGID_1_"  overflow="visible"/>
			</clipPath>
			<path opacity="0.4" clip-path="url(#SVGID_2_)" fill="#191819" enable-background="new    " d="M37.5,254.6
				c0,22.2,17.1,41.7,38.1,41.7c18.9,0,34.6-13.7,37.6-32.7c3,19.1,18.7,33.9,37.6,33.9s34.6-14.3,37.6-33.3
				c3,19.1,18.7,33.6,37.6,33.6s34.6-14.4,37.6-33.5c3,19.1,18.7,33.5,37.6,33.5s34.6-14.4,37.6-33.5c3,19.1,18.7,33.5,37.6,33.5
				s34.6-14.4,37.6-33.5c3,19.1,18.7,33.5,37.6,33.5s34.6-14.5,37.6-33.5c3,19.1,18.7,33.5,37.6,33.5c21,0,38.1-21,38.1-43.3
				l-84.9-81H121.3L37.5,254.6z"/>
		</g>
	</g>
	<g>
		<polygon fill="#CC2929" points="90.4,104 9.5,104 24.9,76.7 9.5,49.4 90.4,49.4 		"/>
		<path fill="#004675" d="M122.3,130.9h8V4.6h-8C122.3,4.6,122.3,130.9,122.3,130.9z"/>
		<rect x="99.3" y="115.8" fill="#E23939" width="407.4" height="74"/>
		<polygon fill="#BB5643" points="36.3,243.9 569.8,243.9 506.7,189.8 99.3,189.8 		"/>
		<polygon fill="#ED6262" points="569.8,243.9 493.6,243.9 448.5,189.8 506.7,189.8 		"/>
		<polygon fill="#90CAF9" points="417.3,243.9 493.6,243.9 448.5,189.8 390.3,189.8 		"/>
		<polygon fill="#ED6262" points="417.3,243.9 341.1,243.9 332.1,189.8 390.3,189.8 		"/>
		<polygon fill="#90CAF9" points="264.9,243.9 341.1,243.9 332.1,189.8 273.9,189.8 		"/>
		<polygon fill="#ED6262" points="264.9,243.9 188.7,243.9 215.7,189.8 273.9,189.8 		"/>
		<polygon fill="#90CAF9" points="112.5,243.9 188.7,243.9 215.7,189.8 157.5,189.8 		"/>
		<polygon fill="#ED6262" points="112.5,243.9 36.3,243.9 99.3,189.8 157.5,189.8 		"/>
		<path fill="#E03232" d="M112.5,243.9c0,22.2-17.1,40.2-38.1,40.2s-38.1-18-38.1-40.2H112.5z"/>
		<path fill="#E03232" d="M264.9,243.9c0,22.2-17.1,40.2-38.1,40.2s-38.1-18-38.1-40.2H264.9z"/>
		<path fill="#5F9CCB" d="M112.5,243.9c0,22.2,17.1,40.2,38.1,40.2s38.1-18,38.1-40.2H112.5z"/>
		<path fill="#E03232" d="M417.3,243.9c0,22.2-17.1,40.2-38.1,40.2s-38.1-18-38.1-40.2H417.3z"/>
		<path fill="#5F9CCB" d="M264.9,243.9c0,22.2,17.1,40.2,38.1,40.2s38.1-18,38.1-40.2H264.9z"/>
		<path fill="#E03232" d="M569.8,243.9c0,22.2-17.1,40.2-38.1,40.2c-21,0-38.1-18-38.1-40.2H569.8z"/>
		<path fill="#5F9CCB" d="M417.3,243.9c0,22.2,17.1,40.2,38.1,40.2s38.1-18,38.1-40.2H417.3z"/>
		<polygon fill="#B21414" points="90.4,104 30.1,73.3 30.1,18.6 90.4,49.4 		"/>
		<rect x="30.1" y="18.7" fill="#E23939" width="92.2" height="54.6"/>
	</g>
	<g>
		<g>
			<path fill="#004675" d="M215.2,370.4c-0.1,3.1,1.1,4.3,2,5.3c0.3,0.3,0.5,0.6,0.7,0.9c0.4,0.7,0.7,1.6,0.9,2.7
				c3.8,22.8,4.6,25.9,14.1,30.9c4.6,2.4,14,4,23.4,4c7.3,0,17.9-1,26.7-5.6c12.8-6.7,17.6-29.8,17.8-31c0-0.1,0.4-2.9,6.3-2.9l0,0
				h0.4c5.6,0,5.9,2.8,6,3.1c0.2,1,5,24.1,17.8,30.8c8.8,4.6,19.4,5.6,26.7,5.6c9.4,0,18.8-1.6,23.4-4c9.5-5,10.4-8.1,14.1-30.9
				c0.2-1,0.5-1.9,0.9-2.7c0.2-0.3,0.4-0.6,0.7-0.9c0.9-1,2-2.2,2-5.3c0-0.5,0-1.4,0-2.5c0-1.5,0.1-3.3,0-4.2
				c-0.3-4.6-4.3-6.5-6.4-6.8c-13.1-2.7-28.9-3.5-45.5-2.3l-0.9,0.1c-10.1,0.7-15.7,1.1-22.4,4.1c-1.5,0.7-3.1,1.5-4.5,2.2
				c-2.5,1.3-6.1,2.7-8.1,3.1c-0.8,0.2-1.6,0.3-2.3,0.5c-1,0.2-3,0.2-4,0c-0.7-0.1-1.5-0.3-2.3-0.5c-1.9-0.4-5.6-1.8-8.1-3.1
				c-1.4-0.7-3-1.5-4.5-2.2c-6.7-3-12.2-3.4-22.4-4.1l-0.9-0.1c-16.6-1.2-32.4-0.4-45.4,2.3c-2.1,0.3-6.2,2.2-6.5,6.8
				c-0.1,0.9,0,2.7,0,4.2C215.2,368.9,215.3,369.8,215.2,370.4z M395.4,364.6v3.4l-4.2-1.7L395.4,364.6z M321.8,369.5
				c0.6-1.6,4.7-6.9,29.8-8.4c4.4-0.3,8.1-0.4,11.4-0.4c14.8,0,19.5,2.7,22.3,7c1.7,2.6,2.8,7.9,2.8,11.3c0,7.4-1.5,20.6-11.8,25.6
				c-4.7,2.3-11.8,3.7-18.9,3.7c-13.7,0-24.6-4.7-29.3-12.5C318.4,379.5,321.7,369.9,321.8,369.5z M229.2,367.8
				c2.8-4.3,7.5-7,22.3-7c3.3,0,7,0.1,11.4,0.4c25.1,1.5,29.1,6.8,29.9,8.6c0,0.1,3.3,9.8-6.4,26.2c-4.6,7.8-15.6,12.5-29.3,12.5
				c-7.1,0-14.2-1.4-18.9-3.7c-10.3-5-11.8-18.2-11.8-25.6C226.3,375.6,227.5,370.4,229.2,367.8z M219,364.6l4.2,1.7l-4.2,1.7V364.6
				z"/>
		</g>
	</g>
</g>
</svg>
