<?xml version="1.0" encoding="utf-8"?>
<!-- Generator: Adobe Illustrator 18.1.1, SVG Export Plug-In . SVG Version: 6.00 Build 0)  -->
<svg version="1.1" id="Capa_1" xmlns="http://www.w3.org/2000/svg" xmlns:xlink="http://www.w3.org/1999/xlink" x="0px" y="0px"
	 viewBox="0 0 178 194" enable-background="new 0 0 178 194" xml:space="preserve">
<path fill="#FFCA22" d="M134.8,86.4c-0.3-25.4-20.9-45.8-46.3-45.8S42.4,61,42.2,86.4h0v63.2h92.7L134.8,86.4L134.8,86.4z
	 M123.1,135.7H53.9V88.6h0c0.2-18.9,15.6-34.2,34.6-34.2s34.4,15.3,34.6,34.2h0V135.7z"/>
<polygon fill="#FFCA22" points="134.8,164.4 134.8,154.2 42.2,154.2 42.2,164.4 32.4,164.4 32.4,175.7 144.6,175.7 144.6,164.4 "/>
<rect x="60.3" y="86.1" fill="#FFCA22" width="12" height="22.3"/>
<rect x="120.9" y="30.1" transform="matrix(-0.6679 0.7442 -0.7442 -0.6679 247.1123 -38.0625)" fill="#FFCA22" width="22.3" height="12"/>
<rect x="142.2" y="75" transform="matrix(-0.997 7.717049e-02 -7.717049e-02 -0.997 312.4243 149.8402)" fill="#FFCA22" width="22.3" height="12"/>
<rect x="77.6" y="15.3" transform="matrix(2.373530e-03 1 -1 2.373530e-03 109.7887 -67.4806)" fill="#FFCA22" width="22.3" height="12"/>
<rect x="11.7" y="75.2" transform="matrix(0.9957 9.233107e-02 -9.233107e-02 0.9957 7.5905 -1.7581)" fill="#FFCA22" width="22.3" height="12"/>
<rect x="35" y="31.3" transform="matrix(0.6565 0.7543 -0.7543 0.6565 43.9994 -21.9657)" fill="#FFCA22" width="22.3" height="12"/>
</svg>
