<?xml version="1.0" encoding="utf-8"?>
<!-- Generator: Adobe Illustrator 18.1.1, SVG Export Plug-In . SVG Version: 6.00 Build 0)  -->
<svg version="1.1" id="Capa_1" xmlns="http://www.w3.org/2000/svg" xmlns:xlink="http://www.w3.org/1999/xlink" x="0px" y="0px"
	 viewBox="0 0 569 478" enable-background="new 0 0 569 478" xml:space="preserve">
<path fill="none" stroke="#000000" stroke-width="8" stroke-miterlimit="10" d="M439,18.1H327.4c-26.4,0-63.1,12.8-81.9,31.6
	L57.1,236.3c-18.7,18.7-18.7,48.6,0,67.3l139.8,139.9c18.7,18.7,49.4,18.7,68.2,0L457,255.1c18.7-18.7,37.5-55.4,37.5-81.9V60.7
	C493.6,34.4,465.5,18.1,439,18.1z M375.1,172.5c-26.4,0-47.7-21.3-47.7-47.7S348.6,77,375.1,77c26.4,0,47.7,21.3,47.7,47.7
	C422.8,151,401.5,172.5,375.1,172.5z"/>
</svg>
