<?xml version="1.0" encoding="utf-8"?>
<!-- Generator: Adobe Illustrator 18.1.1, SVG Export Plug-In . SVG Version: 6.00 Build 0)  -->
<svg version="1.1" id="Capa_1" xmlns="http://www.w3.org/2000/svg" xmlns:xlink="http://www.w3.org/1999/xlink" x="0px" y="0px"
	 viewBox="0 156 557 248" enable-background="new 0 156 557 248" xml:space="preserve">
<g>
	<g>
		<g id="sun_glasses">
			<g>
				<path fill="#FFFFFF" d="M390.2,189.1c-39.3,2.8-80,18.2-124.4,15.2c-33.1-2.2-67.2-12.9-98.1-15.2c-21-1.6-52.9,0-69.1,1.4
					c-30.6,2.6-76.9,7.7-84.3,29c-8.7,25.1,12,33.7,16.6,44.2c6.6,15.4,5.9,31.2,11,44.2c4.8,12,11.1,25.2,19.3,36
					c29.8,38.8,114.9,42.6,153.4,11.1c12.2-10,24.9-31,33.2-49.8c5.8-13.2,12.4-52.5,30.4-52.5c13.8,0,15.7,12.4,19.4,24.9
					c10.2,34.9,27.1,67.3,51.1,82.9c37.6,24.5,104.2,22.7,134.1-2.8c18-15.3,30.3-42.3,37.3-65c2.8-9,1.8-20.4,5.5-29
					c5.6-12.9,19.3-15.3,18-36C541.2,188.7,439.1,185.6,390.2,189.1z M203.7,338.3c-27,22.5-84,26.1-113.3,5.5
					c-17.6-12.3-49.7-74.8-29-113.3c7.3-13.7,20.6-17.2,40.1-19.4c50.5-5.7,127.1,1.9,138.2,37.3
					C250.1,282.1,220.2,324.5,203.7,338.3z M499.4,273.4c-2.3,26.9-16.8,62-35.9,71.8c-41.9,21.6-99.2,11-124.4-22.1
					c-12.9-17-29.8-49.9-22.1-74.6c8-25.9,46-34.3,82.9-37.3C464.9,205.9,505.1,207.6,499.4,273.4z M458.3,220.9
					c-0.9-2-3.3-2.9-5.3-2c-2,0.9-2.9,3.3-2,5.4l25.8,55.4c0.9,2,3.3,2.9,5.3,2c2-0.9,2.9-3.3,2-5.3L458.3,220.9z M444.9,234.3
					c-0.9-2-3.3-2.9-5.3-2c-2,0.9-2.9,3.3-2,5.3l17.8,42c0.9,2,3.3,2.9,5.3,2c2-0.9,2.9-3.3,2-5.3L444.9,234.3z"/>
			</g>
		</g>
	</g>
</g>
</svg>
