<?xml version="1.0" encoding="utf-8"?>
<!-- Generator: Adobe Illustrator 18.1.1, SVG Export Plug-In . SVG Version: 6.00 Build 0)  -->
<svg version="1.1" id="Capa_1" xmlns="http://www.w3.org/2000/svg" xmlns:xlink="http://www.w3.org/1999/xlink" x="0px" y="0px"
	 viewBox="0 0 960 212" enable-background="new 0 0 960 212" xml:space="preserve">
<g>
	<g>
		<path fill="#686767" d="M278,60.5c13.9,0,25.5,4.8,35.3,14.2c9.5,9.5,14.2,21.1,14.2,34.7c0,13.4-4.8,24.9-14.5,34.4
			c-9.8,9.5-21.4,14.2-35,14.2s-25.3-4.8-35-14.2c-9.8-9.5-14.5-21.1-14.5-34.4c0-13.4,4.8-24.9,14.5-34.4
			C252.8,65.2,264.4,60.5,278,60.5z M278,81c-7.4,0-13.9,2.7-19,8.3c-5.3,5.6-8,12.2-8,19.9s2.7,14.5,8,19.9
			c5.3,5.6,11.6,8.3,19,8.3c7.4,0,13.9-2.7,19.3-8.3c5.3-5.6,8-12.2,8-19.9s-2.7-14.5-8-19.9C292,83.6,285.8,81,278,81z"/>
		<path fill="#686767" d="M336.2,186.9V62.6h20.5v11c7.4-8.6,17.5-13.1,30.6-13.1c13.4,0,24.6,4.5,33.2,13.7s13.1,20.8,13.1,34.7
			c0,14.2-4.5,26.1-13.1,35.3c-8.6,9.2-19.9,13.9-33.6,13.9c-5.6,0-10.7-0.9-15.2-2.7c-4.5-1.8-8.9-4.5-13.4-8.3v39.8L336.2,186.9
			L336.2,186.9z M384.6,81c-7.7,0-14.2,2.7-19.3,8c-5.1,5.3-7.7,12.2-7.7,20.5c0,8,2.7,14.5,8,19.9c5.3,5.3,11.9,8,19.6,8
			c7.4,0,13.7-2.7,19-8c5.1-5.3,7.7-12.2,7.7-19.9c0-8-2.7-14.5-7.7-20.2C398.6,83.6,392,81,384.6,81z"/>
		<path fill="#686767" d="M446.7,155.7V83h-11V62.5h11V31.4H469v31.1h13.4V83H469v72.7H446.7z"/>
		<path fill="#686767" d="M489.7,52.5V31.4H512v21.1C511.9,52.5,489.7,52.5,489.7,52.5z M489.7,155.7V62.6H512v93.2H489.7z"/>
	</g>
	<g>
		<path fill="#43C9ED" d="M520.3,68.8h17.8l22.3,65h0.6l22.8-65h16l-31.1,85.8h-16.9L520.3,68.8z"/>
		<path fill="#43C9ED" d="M602.2,112.7v-2.1c0-29.4,17.8-43.3,38.3-43.3c24.3,0,35.6,13.9,35.6,41v8h-57
			c1.2,19.6,10.7,26.1,27.6,26.1c11.3,0,18.7-2.7,26.7-6.2v11.6c-5.3,3.8-15.4,8.3-29.7,8.3C615.8,156.1,602.2,139.7,602.2,112.7z
			 M619.1,104.1h39.5c0-17.2-6.5-23.8-18.7-23.8C630.7,80.3,620.3,85.1,619.1,104.1z"/>
		<path fill="#43C9ED" d="M685.9,68.8h16v7.4h0.6c7.1-5.1,18.4-9.2,28.8-9.2c16.6,0,24.6,6.8,24.6,23.5v63.8h-16.3V94.6
			c0-9.5-2.7-13.4-15.7-13.4c-7.1,0-15.4,2.7-21.4,5.3v68H686L685.9,68.8L685.9,68.8z"/>
		<path fill="#43C9ED" d="M775.9,133.8V82.1h-12.2V68.8h12.2V48.6h16.6v20.2h20.8v13.4h-20.8v49.6c0,7.7,2.7,10.7,11.9,10.7
			c3.6,0,7.1-0.6,10.7-0.9v11c-3.6,1.5-7.4,3.3-15.4,3.3C785.3,155.4,775.9,149.5,775.9,133.8z"/>
		<path fill="#43C9ED" d="M819.2,131.7c0-15.4,10.1-22.8,26.7-24.9l21.7-2.7v-7.4c0-12.8-5.3-15.7-20.5-15.7
			c-8.3,0-15.4,1.5-20.8,2.7V72c8-3.3,16.6-4.8,27.3-4.8c19.3,0,30.6,8,30.6,25.5v62h-13.7l-1.5-7.1h-0.9c-4.1,5.1-11,8.6-22.3,8.6
			C830.2,156.1,819.2,148.3,819.2,131.7z M867.2,138.5v-22.8l-17.8,1.8c-9.2,0.9-13.7,4.8-13.7,13.7c0,8.6,5.6,13.1,14.2,13.1
			C857.2,143.9,864,141.8,867.2,138.5z"/>
		<path fill="#43C9ED" d="M893.7,149.8v-12.4c7.1,2.7,13.4,5.3,25.5,5.3c12.2,0,17.8-4.1,17.8-11.6c0-6.5-3.3-9.8-13.7-12.2l-8-2.1
			c-12.8-3-21.7-9.2-21.7-24.3c0-15.4,9.8-25.5,30.6-25.5c11.9,0,19,2.7,24,5.1v12.8c-4.5-1.8-13.4-4.1-22.8-4.1
			c-10.7,0-16,3.3-16,10.7c0,6.5,3.3,9.2,11.9,11.6l8,2.1c16.9,4.1,23.5,10.1,23.5,25.5c0,16.9-12.2,25.8-31.8,25.8
			C910.6,156.1,900.5,154,893.7,149.8z"/>
	</g>
	<g>
		<g opacity="0.3">
			<g>
				<path d="M195.7,19.3h-44.4c-10.5,0-25.1,5.1-32.5,12.6L44,106c-7.4,7.4-7.4,19.3,0,26.7l55.5,55.6c7.4,7.4,19.6,7.4,27.1,0
					l76.2-74.8c7.4-7.4,14.9-22,14.9-32.5V36.2C217.4,25.7,206.2,19.3,195.7,19.3z M170.3,80.6c-10.5,0-19-8.5-19-19s8.5-19,19-19
					s19,8.5,19,19C189.3,72.1,180.8,80.6,170.3,80.6z"/>
				<path d="M23,123.3l68.1,68.1c-7.1,3.7-16.2,2.7-22.3-3.4l-55.9-55.6c-7.4-7.4-7.4-19.6,0-27.1l74.8-74.8
					c7.4-7.4,22-13.5,32.5-13.5L23,114.1C20.6,116.8,20.6,120.9,23,123.3z"/>
			</g>
		</g>
		<g>
			<g>
				<path fill="#FF3131" d="M198.5,19.3h-44.4c-10.5,0-25.1,5.1-32.5,12.6L46.8,106c-7.4,7.4-7.4,19.3,0,26.7l55.6,55.6
					c7.4,7.4,19.6,7.4,27.1,0l76.2-74.8c7.4-7.4,14.9-22,14.9-32.5V36.2C220.2,25.7,209,19.3,198.5,19.3z M173.1,80.6
					c-10.5,0-19-8.5-19-19s8.5-19,19-19c10.5,0,19,8.5,19,19C192.1,72.1,183.6,80.6,173.1,80.6z"/>
				<path fill="#FF3131" d="M25.8,123.3l68.1,68.1c-7.1,3.7-16.2,2.7-22.3-3.4l-55.9-55.6c-7.4-7.4-7.4-19.6,0-27.1l74.8-74.8
					c7.4-7.4,22-13.5,32.5-13.5l-97.2,97.2C23.4,116.8,23.4,120.9,25.8,123.3z"/>
			</g>
		</g>
		<g>
			<path fill="#D11515" d="M191.3,67.4c-2.5,7.6-9.6,13.2-18.1,13.2c-10.5,0-19-8.5-19-19c0-0.9,0.1-1.7,0.2-2.5
				c-7.7-0.9-15.5-1.4-23.5-1.4c-13.5,0-26.7,1.4-39.4,4.1L46.8,106c-7.4,7.4-7.4,19.3,0,26.7l55.6,55.5c7.4,7.4,19.6,7.4,27.1,0
				l76.3-74.8c7.4-7.4,15-22,15-32.5v-0.8C210.9,75.1,201.5,70.9,191.3,67.4z"/>
			<path fill="#D11515" d="M25.8,114.1l47.6-47.6c-11.5,3.6-22.6,8.4-33,14.1l-24.7,24.7c-7.4,7.4-7.4,19.6,0,27.1l55.9,55.5
				c6.1,6.1,15.3,7.1,22.3,3.4l-68-68C23.4,120.9,23.4,116.8,25.8,114.1z"/>
		</g>
		<g>
			<path fill="#BF0C0C" d="M168.4,94.5c-48.5,0-92.6,12.8-125.1,33.6c0.9,1.7,2,3.3,3.5,4.7l55.6,55.5c7.4,7.4,19.6,7.4,27.1,0
				l76.3-74.8c3.6-3.6,7.3-9,10.1-14.8C200.8,95.9,184.8,94.5,168.4,94.5z"/>
			<path fill="#BF0C0C" d="M25,141.7l46.6,46.3c6.1,6.1,15.3,7.1,22.3,3.4l-58.1-58.1C31.9,135.9,28.3,138.7,25,141.7z"/>
		</g>
	</g>
</g>
</svg>
